<?xml version="1.0" standalone="no"?>
<!DOCTYPE svg PUBLIC "-//W3C//DTD SVG 20010904//EN"
 "http://www.w3.org/TR/2001/REC-SVG-20010904/DTD/svg10.dtd">
<svg version="1.0" xmlns="http://www.w3.org/2000/svg"
 width="565.000000pt" height="565.000000pt" viewBox="0 0 565.000000 565.000000"
 preserveAspectRatio="xMidYMid meet">
<metadata>
Created by potrace 1.14, written by Peter Selinger 2001-2017
</metadata>
<g transform="translate(0.000000,565.000000) scale(0.100000,-0.100000)"
fill="#000000" stroke="none">
<path d="M4145 4712 c-2 -3 -53 -6 -112 -7 -60 -2 -119 -5 -133 -9 -14 -3 -65
-8 -113 -10 -48 -3 -92 -8 -96 -11 -10 -6 -265 -19 -372 -20 -59 0 -81 4 -96
18 -26 22 -30 22 -71 -10 l-35 -26 -221 -4 c-121 -2 -258 -5 -304 -7 -45 -1
-122 4 -170 12 -77 12 -553 20 -687 12 -22 -1 -60 1 -85 5 -28 4 -72 1 -117
-8 -40 -8 -87 -13 -105 -11 -60 8 -159 7 -168 -2 -5 -5 -11 -21 -15 -35 -11
-45 31 -54 245 -52 102 1 224 3 273 5 48 2 87 0 87 -4 0 -5 11 -8 25 -8 35 0
33 -36 -5 -88 -35 -49 -36 -54 -12 -94 13 -24 14 -32 4 -35 -17 -6 -42 -57
-34 -69 4 -6 15 -14 26 -17 16 -6 17 -14 12 -59 -5 -40 -14 -60 -38 -85 -23
-24 -28 -35 -20 -45 5 -7 12 -17 14 -23 1 -5 12 -8 22 -6 17 2 18 -2 13 -41
-15 -99 -24 -116 -98 -169 -72 -53 -89 -73 -89 -109 0 -17 4 -19 28 -14 15 4
38 11 51 16 41 15 45 -3 21 -109 -12 -54 -23 -132 -25 -174 -2 -50 -10 -93
-24 -124 -15 -33 -18 -52 -11 -59 17 -17 11 -34 -25 -67 -19 -18 -35 -37 -35
-42 0 -6 -11 -25 -25 -43 -14 -18 -25 -42 -25 -54 l0 -21 29 20 c66 47 68 23
22 -201 -5 -20 -20 -51 -35 -69 -25 -29 -27 -38 -23 -88 4 -44 1 -62 -14 -83
-14 -19 -21 -49 -24 -102 -3 -68 -23 -126 -44 -126 -4 0 -22 -13 -39 -28 -22
-19 -33 -40 -36 -66 -5 -32 -2 -38 20 -48 16 -8 24 -18 20 -27 -21 -67 -37
-96 -68 -121 -19 -15 -42 -46 -52 -69 l-19 -40 27 -31 c25 -30 25 -32 9 -57
-19 -29 -89 -83 -108 -83 -7 0 -15 -19 -19 -42 -8 -48 3 -59 51 -53 18 2 35 0
38 -5 10 -16 -16 -63 -55 -97 -48 -42 -58 -81 -35 -130 22 -45 10 -71 -52
-116 -24 -17 -43 -38 -43 -48 0 -9 -11 -24 -25 -33 -22 -15 -25 -15 -38 4 -14
20 -14 20 -41 -1 -20 -16 -24 -24 -16 -34 7 -8 7 -21 1 -38 -16 -40 4 -49 62
-26 28 11 54 16 59 11 19 -19 -108 -143 -215 -210 -50 -31 -60 -33 -143 -34
-102 0 -465 -58 -489 -78 -25 -21 -19 -59 11 -66 24 -6 220 3 233 10 3 2 35 7
71 11 36 4 67 8 70 10 10 6 123 18 200 20 41 2 86 5 100 7 14 2 34 1 45 -3 11
-3 29 0 40 7 17 11 26 10 61 -5 28 -13 46 -16 57 -9 30 16 136 22 287 17 71
-3 188 2 374 15 17 1 59 -2 95 -6 42 -6 101 -4 161 3 64 8 106 8 130 2 26 -7
63 -5 145 10 61 10 142 20 180 22 161 6 276 31 307 67 17 19 17 22 2 48 -16
26 -19 27 -63 18 -44 -8 -98 -12 -390 -22 -115 -5 -127 -3 -171 19 -25 13 -73
30 -106 39 -36 9 -64 23 -73 36 -7 11 -19 20 -26 20 -25 0 -48 40 -48 83 0 87
47 231 89 278 11 13 13 25 6 57 -5 22 -8 50 -7 63 1 13 3 32 4 41 0 10 15 33
31 52 17 19 35 48 41 64 9 26 7 34 -10 51 -14 14 -18 28 -15 53 6 36 48 108
64 108 21 0 31 51 18 86 -16 44 2 114 40 162 47 59 55 72 48 79 -3 3 -17 1
-31 -5 -14 -6 -25 -11 -25 -9 0 8 42 111 52 127 7 10 20 21 30 23 13 4 18 15
18 41 0 29 4 36 19 36 10 0 25 7 32 16 12 15 11 16 -8 10 -17 -5 -29 -1 -46
16 -22 22 -23 27 -11 59 6 20 20 51 30 70 10 19 19 49 19 68 0 30 4 35 40 48
41 14 123 11 170 -7 13 -5 54 -9 92 -8 97 1 158 -31 197 -101 19 -36 33 -51
48 -51 51 0 135 -136 160 -260 24 -116 12 -339 -28 -534 -3 -15 0 -39 7 -52
l12 -24 39 22 c34 19 38 26 39 62 0 41 6 98 12 126 4 16 13 81 22 145 7 58 14
93 32 155 9 30 17 87 19 125 1 42 10 88 22 115 11 25 28 85 38 133 10 50 27
103 39 121 16 24 20 38 13 50 -19 33 10 141 42 161 5 3 10 23 10 43 0 20 11
80 25 132 14 52 25 105 25 116 0 12 6 27 14 33 8 7 13 19 12 29 -2 9 8 40 21
69 13 28 34 94 47 145 13 51 33 116 44 143 11 28 23 69 26 90 4 21 13 46 21
55 21 23 37 72 31 95 -3 12 -16 26 -29 32 -20 9 -26 8 -38 -11 -22 -34 -38
-73 -76 -191 -38 -118 -62 -172 -99 -221 -13 -17 -24 -36 -24 -43 0 -39 -148
-215 -199 -237 -14 -6 -44 -31 -67 -55 -22 -25 -63 -61 -90 -81 -27 -20 -74
-65 -104 -99 -30 -34 -65 -65 -77 -70 -33 -13 -119 -19 -300 -23 l-163 -4 0
34 c0 42 16 83 42 111 14 15 19 30 16 48 -3 14 -1 48 4 77 7 40 17 58 46 84
36 31 36 33 26 73 -15 53 10 112 54 130 31 13 62 44 82 80 9 18 7 25 -14 46
-14 14 -32 25 -40 25 -17 0 -16 71 2 93 7 8 14 45 15 81 2 62 5 69 35 92 35
28 42 61 15 71 -38 13 -41 21 -28 76 11 47 11 144 1 174 -3 6 4 19 15 29 17
15 19 26 14 61 -6 42 -6 43 44 79 49 35 56 47 54 101 -1 16 60 33 95 27 35 -7
50 -7 92 0 19 3 58 8 85 11 28 3 64 10 80 15 42 13 342 21 371 10 13 -5 77
-11 142 -14 138 -5 173 -16 166 -55 -8 -45 8 -56 75 -53 60 3 138 -19 127 -36
-3 -5 2 -21 10 -37 8 -16 12 -35 10 -42 -3 -8 1 -16 9 -19 8 -4 15 -17 15 -30
0 -15 6 -24 15 -24 8 0 22 -11 31 -25 9 -14 26 -25 38 -25 18 0 32 -18 71 -97
54 -110 75 -186 80 -293 2 -41 10 -90 18 -109 10 -24 13 -58 9 -120 -4 -74 -2
-90 13 -105 16 -15 18 -37 19 -144 1 -167 20 -206 90 -188 20 5 27 21 50 118
15 61 32 121 38 132 6 12 15 37 19 56 3 19 16 76 27 125 12 50 23 104 26 120
3 17 8 44 12 60 3 17 12 53 20 82 8 29 17 65 20 80 3 15 21 43 40 62 33 32 44
61 24 61 -15 0 -12 43 10 122 11 40 22 97 25 126 5 53 33 120 63 155 9 11 11
17 4 17 -15 0 -15 37 -1 78 8 22 7 46 -1 86 -10 47 -15 55 -38 60 -30 6 -112
2 -187 -10 -28 -4 -54 -9 -60 -9 -5 -1 -18 5 -27 13 -11 9 -27 12 -43 8 -14
-4 -35 -1 -47 5 -11 6 -66 13 -122 14 -56 2 -113 5 -128 8 -15 2 -30 2 -33 -1z
m80 -91 c26 -2 21 -6 -35 -27 -50 -20 -75 -24 -109 -19 -30 5 -40 10 -33 17
14 14 100 36 127 33 11 -1 34 -3 50 -4z m311 -213 c4 -5 -4 -8 -17 -6 -12 1
-24 8 -26 15 -5 14 34 6 43 -9z m132 -47 c3 -8 -1 -12 -9 -9 -7 2 -15 10 -17
17 -3 8 1 12 9 9 7 -2 15 -10 17 -17z m-2518 -15 c-19 -7 -42 -11 -50 -8 -18
7 21 20 60 20 21 0 20 -1 -10 -12z m2367 6 c19 -12 3 -25 -62 -51 -33 -13 -71
-34 -85 -46 -35 -31 -80 -59 -86 -53 -2 3 -6 14 -9 26 -3 16 3 21 33 27 20 4
57 24 83 46 62 52 100 67 126 51z m-187 -53 c0 -11 -36 -17 -50 -9 -9 6 -8 9
6 12 29 6 44 5 44 -3z m330 -27 c0 -32 -115 -130 -169 -144 -16 -5 -34 -15
-41 -23 -11 -13 -8 -15 14 -15 38 0 104 29 111 49 4 14 55 41 78 41 15 0 -33
-78 -57 -94 -20 -12 -39 -15 -78 -11 -29 4 -71 1 -93 -5 -92 -26 -127 32 -58
97 53 51 74 62 118 65 27 1 46 9 57 24 14 17 27 21 67 20 28 -1 51 -3 51 -4z
m-2480 -42 c0 -14 -30 -27 -82 -33 -53 -7 -59 -4 -25 14 42 23 107 35 107 19z
m68 5 c-10 -11 -48 -14 -48 -4 0 5 12 9 27 9 14 0 24 -2 21 -5z m180 -24 c-7
-12 -28 -22 -55 -26 -32 -5 -47 -12 -54 -29 -13 -27 -93 -71 -152 -83 -10 -1
-28 -10 -41 -18 -13 -9 -37 -18 -52 -21 -31 -6 -76 -42 -69 -55 11 -17 -16
-60 -47 -72 -28 -12 -34 -12 -41 0 -6 9 -3 21 7 32 9 10 16 23 16 29 0 56 69
106 197 143 57 17 114 41 139 59 47 34 106 58 142 59 19 1 21 -1 10 -18z m179
-37 c12 -31 -14 -60 -64 -74 -26 -7 -53 -17 -59 -22 -6 -4 -37 -17 -69 -28
-32 -11 -66 -26 -74 -34 -9 -7 -28 -16 -43 -20 -15 -3 -50 -20 -78 -36 -28
-16 -63 -32 -78 -36 l-27 -5 25 21 c14 12 50 35 80 50 30 16 70 40 89 54 18
14 47 28 63 32 17 3 65 29 107 58 79 54 118 66 128 40z m-16 -182 c-6 -11 -29
-24 -56 -31 -25 -6 -48 -18 -51 -26 -3 -7 -13 -12 -23 -10 -9 2 -40 -8 -69
-21 -28 -13 -66 -26 -83 -29 -17 -3 -59 -20 -93 -37 -139 -71 -177 -88 -200
-88 -29 0 -43 15 -16 17 10 1 41 18 68 38 28 20 60 38 72 40 12 2 31 7 43 11
39 12 232 107 256 126 13 10 33 18 45 18 12 0 37 9 56 19 29 16 37 17 48 6 11
-9 11 -18 3 -33z m1947 -17 c-18 -17 -41 -34 -50 -38 -10 -3 -18 -11 -18 -16
0 -6 7 -8 15 -5 10 4 15 0 15 -10 0 -13 -4 -15 -19 -6 -11 5 -21 14 -23 20 -2
6 -20 -1 -41 -16 -21 -14 -41 -23 -44 -20 -10 10 23 99 38 102 8 1 19 3 24 5
6 1 18 -1 27 -5 11 -5 30 -1 50 11 50 30 66 17 26 -22z m32 -82 c0 -10 -14
-45 -30 -78 -16 -33 -30 -65 -30 -71 0 -6 -20 -25 -44 -42 -54 -39 -68 -23
-30 33 17 26 23 44 18 58 -4 12 -8 35 -8 52 -1 27 2 30 43 37 25 4 49 12 55
18 15 15 26 12 26 -7z m-1994 -52 c-10 -15 -137 -82 -146 -76 -5 3 -14 0 -22
-7 -7 -7 -31 -14 -53 -15 -37 -2 -39 -1 -21 12 11 8 26 15 33 15 8 0 40 14 73
30 33 17 77 34 98 39 20 5 38 9 40 10 2 1 1 -3 -2 -8z m-476 -135 c0 -8 -21
-21 -48 -30 -26 -9 -59 -24 -72 -33 -14 -10 -29 -18 -35 -19 -5 -1 -23 -5 -40
-9 l-30 -8 22 25 c13 13 53 35 90 47 38 13 75 27 83 32 22 12 30 11 30 -5z
m444 -53 c-4 -16 -8 -31 -11 -35 -5 -9 -207 -88 -226 -88 -7 0 -24 -11 -37
-25 -13 -14 -30 -25 -37 -25 -22 0 -113 -41 -113 -51 0 -5 -10 -9 -22 -9 -13
0 -45 -11 -72 -25 -27 -14 -52 -23 -54 -20 -7 7 34 45 49 45 7 0 27 11 45 25
18 14 39 25 47 25 8 0 22 11 31 25 9 14 21 25 27 25 32 0 125 36 166 64 27 17
67 38 91 44 25 8 42 19 42 28 0 8 3 13 8 11 4 -3 16 -1 27 4 38 15 46 11 39
-18z m1961 -48 c-20 -94 -46 -175 -56 -175 -14 0 -22 49 -10 64 7 9 8 22 3 37
-13 34 2 77 40 116 17 18 33 31 34 30 2 -2 -3 -34 -11 -72z m-2397 -71 c-8
-17 -22 -25 -55 -30 -49 -7 -68 2 -39 20 11 6 26 18 35 26 9 9 28 14 43 12 24
-4 26 -6 16 -28z m306 -43 c-23 -20 -75 -34 -87 -22 -8 8 -5 11 14 11 13 0 35
6 49 13 26 14 41 13 24 -2z m-459 -32 c-43 -43 -65 -58 -95 -64 -28 -5 -33 9
-12 34 13 16 110 64 142 70 2 1 -14 -17 -35 -40z m315 -39 c-14 -11 -52 -29
-85 -40 -33 -11 -79 -31 -103 -45 -39 -22 -72 -25 -72 -5 0 11 64 50 81 50 8
0 30 10 49 22 19 12 45 22 58 23 12 1 25 5 29 8 3 4 20 7 37 7 l31 0 -25 -20z
m204 -5 c-6 -15 -71 -41 -81 -32 -6 7 57 47 74 47 7 0 10 -7 7 -15z m-92 -93
c16 6 31 8 33 6 11 -11 -54 -56 -87 -61 -38 -6 -39 -6 -42 35 -1 14 45 28 58
17 4 -4 21 -3 38 3z m-434 -34 c-2 -7 -29 -25 -59 -40 -62 -31 -85 -36 -49
-11 14 9 29 23 33 31 16 25 82 43 75 20z m300 -31 c3 -23 0 -27 -21 -27 -24 0
-77 -49 -77 -70 0 -24 22 -18 33 9 9 25 15 29 34 25 12 -3 41 1 65 9 48 17
128 29 128 19 -1 -48 -56 -90 -125 -95 -19 -2 -43 -11 -53 -20 -11 -10 -42
-20 -71 -23 l-51 -5 0 31 c0 38 -15 31 -34 -15 -8 -18 -23 -36 -34 -39 -11 -4
-23 -13 -26 -21 -3 -8 -12 -12 -20 -9 -8 3 -28 -2 -45 -10 -34 -18 -41 -19
-41 -8 0 5 18 17 41 27 34 16 59 40 59 59 0 11 -41 -4 -75 -27 -29 -20 -43
-23 -66 -17 -16 5 -31 5 -34 0 -3 -5 7 -10 22 -12 24 -3 19 -6 -29 -21 -70
-21 -68 -21 -68 4 0 41 40 97 74 103 36 7 102 40 131 66 11 10 42 21 68 25 27
3 81 22 120 41 39 19 76 33 82 31 5 -2 11 -16 13 -30z m1126 1 c-8 -18 -64
-61 -64 -49 0 7 58 60 67 61 1 0 0 -6 -3 -12z m-61 -183 c-13 -22 -74 -65 -94
-65 -9 0 -22 -7 -29 -15 -7 -8 -22 -15 -33 -15 -21 0 -21 0 -2 20 17 17 148
90 161 90 3 0 1 -7 -3 -15z m-1115 -44 c10 -6 7 -10 -12 -15 -14 -3 -45 -19
-68 -34 -24 -16 -58 -34 -75 -42 -18 -7 -33 -16 -33 -21 0 -5 -9 -9 -20 -9
-12 0 -32 -11 -45 -24 -28 -28 -89 -51 -124 -49 -14 2 -33 -5 -43 -14 -17 -15
-20 -15 -35 -1 -14 15 -13 17 23 27 22 6 75 33 119 61 43 27 85 50 92 50 17 0
91 37 122 61 25 20 76 25 99 10z m145 -63 c-8 -15 -80 -31 -97 -21 -14 8 -14
11 0 31 8 12 25 22 37 22 12 0 29 5 37 10 11 7 16 4 21 -13 3 -12 4 -25 2 -29z
m-453 17 c0 -19 -10 -19 -46 0 l-29 15 38 0 c26 0 37 -4 37 -15z m1270 -25 c9
0 4 -7 -12 -15 -17 -10 -38 -12 -59 -8 -30 6 -31 7 -13 20 10 7 29 11 44 9 14
-2 32 -5 40 -6z m-910 -58 c0 -2 -5 -12 -10 -23 -13 -24 -48 -25 -66 -1 -22
28 -16 33 31 31 25 -2 45 -4 45 -7z m-101 -48 c-7 -9 -40 -29 -73 -46 -34 -17
-72 -38 -86 -47 -14 -10 -36 -18 -50 -19 -30 -1 -100 -32 -100 -43 0 -4 8 -12
17 -18 29 -16 9 -23 -81 -26 l-86 -4 28 24 c32 26 142 83 215 110 26 10 47 21
47 26 0 9 127 52 174 58 5 0 3 -6 -5 -15z m1095 1 c-4 -8 -9 -15 -13 -16 -31
-3 -57 -11 -65 -19 -6 -6 -17 -10 -25 -10 -8 0 -12 3 -8 6 3 3 8 5 11 5 4 -1
18 10 32 24 28 28 77 35 68 10z m-1025 -152 c-8 -9 -32 -24 -54 -34 -22 -10
-52 -29 -66 -42 -14 -14 -45 -33 -70 -44 -24 -11 -62 -32 -83 -46 -21 -15 -48
-27 -60 -27 -12 0 -44 -13 -72 -29 -28 -15 -61 -26 -73 -24 -15 2 -27 -6 -40
-28 -15 -25 -27 -32 -58 -34 l-39 -3 10 34 c6 19 13 34 16 34 3 0 41 20 85 45
43 25 96 50 117 56 21 5 38 14 38 18 0 9 56 35 80 37 8 0 32 8 52 17 21 10 44
17 52 17 9 0 30 13 48 28 20 17 47 29 67 30 19 2 37 5 40 7 13 13 22 3 10 -12z
m35 -97 c-7 -19 -105 -59 -116 -48 -5 5 -11 18 -12 28 -3 16 7 21 58 30 67 11
78 10 70 -10z m910 8 c19 -18 19 -19 4 -43 -10 -17 -13 -17 -30 -2 -18 16 -24
42 -11 54 10 11 20 8 37 -9z m-1064 -74 c-19 -13 -30 -13 -30 0 0 6 10 10 23
10 18 0 19 -2 7 -10z m133 -13 c9 -25 -27 -80 -60 -91 -18 -6 -38 -17 -44 -23
-14 -14 -23 -54 -11 -51 4 1 22 -1 41 -5 29 -6 32 -10 27 -29 -3 -13 -6 -33
-6 -45 0 -28 -40 -65 -88 -82 -20 -8 -50 -23 -67 -36 -16 -12 -41 -25 -55 -30
-14 -4 -42 -21 -64 -37 -21 -17 -60 -37 -87 -45 -26 -8 -58 -25 -71 -38 -17
-18 -34 -25 -63 -25 -22 0 -47 -5 -55 -11 -11 -8 -5 -9 25 -5 37 6 39 5 21 -9
-11 -8 -27 -15 -36 -15 -9 0 -27 -11 -40 -25 -20 -21 -32 -25 -84 -25 l-61 1
31 27 c90 78 111 92 136 92 30 0 78 50 78 82 0 15 -5 19 -20 15 -11 -3 -23 -1
-26 4 -3 5 0 9 6 9 7 0 25 11 41 25 17 13 36 22 45 18 8 -3 21 2 28 12 10 13
21 17 43 12 23 -5 35 -1 48 13 10 11 27 22 37 26 11 3 35 16 54 29 19 13 48
27 65 30 18 4 35 17 44 36 l15 29 -27 -13 c-21 -9 -27 -9 -31 1 -5 16 -27 15
-63 -4 -30 -15 -30 -16 -13 -35 16 -18 16 -19 -2 -20 -10 -1 -27 -1 -36 0 -10
1 -34 -10 -53 -25 -20 -15 -38 -24 -41 -21 -6 5 -36 -9 -114 -51 -62 -35 -90
-46 -127 -52 -24 -4 -43 -5 -43 -3 0 15 61 132 76 145 11 10 51 24 88 33 77
18 121 39 185 91 25 20 53 34 65 33 12 -2 54 14 93 34 40 20 83 37 97 37 13 0
29 7 36 15 15 18 56 20 63 2z m-200 -419 c11 -16 19 -20 24 -11 5 6 22 15 38
19 29 6 29 6 -9 -20 -40 -28 -74 -34 -113 -22 l-23 7 28 24 c34 30 36 30 55 3z
m-419 -7 c3 -4 18 -6 33 -3 l28 5 -24 -26 c-23 -26 -31 -26 -79 -1 -22 11 -23
13 -5 23 22 13 40 14 47 2z m455 -97 c-8 -10 -47 -33 -86 -51 -40 -18 -73 -38
-73 -42 0 -5 12 -14 28 -19 24 -9 24 -11 5 -11 -12 -1 -34 4 -48 11 -21 10
-34 7 -92 -22 -38 -18 -82 -48 -100 -66 -21 -22 -42 -35 -66 -37 -22 -3 -69
-27 -126 -66 l-91 -62 -10 26 c-13 34 -3 51 63 110 35 30 75 54 113 67 32 11
74 31 92 45 18 14 44 26 57 28 35 3 89 27 98 42 4 7 16 13 26 13 11 0 29 11
42 25 29 30 62 36 35 6 -17 -19 -16 -19 17 -11 19 4 40 11 47 15 16 10 73 23
79 19 2 -2 -2 -11 -10 -20z m-29 -164 c-15 -29 -49 -44 -102 -47 -34 -2 -48 2
-48 10 0 17 86 55 128 56 30 1 32 -1 22 -19z m-105 -109 c3 -6 -4 -15 -15 -21
-11 -6 -20 -17 -20 -24 0 -8 -16 -17 -36 -20 -19 -4 -43 -15 -53 -25 -10 -10
-36 -21 -57 -24 -24 -4 -57 -22 -88 -47 -26 -22 -55 -40 -63 -40 -9 0 -33 -16
-54 -35 -44 -39 -79 -52 -106 -36 -15 8 -23 4 -50 -27 -34 -40 -48 -40 -38 1
4 15 18 30 35 37 16 7 31 19 34 27 4 8 13 13 20 10 8 -3 42 16 76 44 34 27 69
49 78 49 9 1 32 14 51 30 20 17 41 27 54 24 11 -2 48 11 81 29 34 19 68 33 76
32 8 0 21 5 28 12 16 15 38 17 47 4z m76 -103 c-4 -13 -6 -29 -3 -37 2 -7 -14
-30 -37 -51 -22 -21 -41 -44 -41 -52 0 -8 -10 -24 -22 -35 -34 -30 -158 -94
-177 -91 -9 1 -23 -2 -31 -7 -8 -6 -35 -17 -59 -26 -37 -13 -55 -28 -67 -57
-1 -2 -14 -5 -30 -8 -16 -2 -50 -13 -75 -24 -25 -10 -55 -16 -68 -13 -13 3
-29 -1 -39 -10 -25 -23 -67 -36 -82 -27 -19 12 -5 37 32 56 18 9 36 22 40 29
4 7 19 16 33 19 46 12 139 61 167 89 17 17 33 24 43 21 9 -4 26 -2 38 3 33 15
85 32 162 55 39 11 71 22 73 23 2 2 -2 12 -9 22 -11 19 -14 19 -65 4 -29 -9
-62 -25 -72 -34 -19 -17 -20 -17 -24 5 -7 43 2 54 58 72 30 9 60 26 67 37 8
13 24 19 47 20 19 0 53 9 75 19 57 27 77 26 66 -2z m-71 -283 c-7 -8 -9 -18
-6 -24 7 -11 -14 -61 -26 -61 -4 0 -24 -22 -43 -49 -20 -27 -43 -52 -53 -55
-11 -3 -9 0 6 10 12 9 22 22 22 30 0 18 -67 7 -102 -18 -17 -12 -36 -17 -48
-13 -25 8 -48 -4 -30 -15 21 -13 3 -43 -22 -37 -11 3 -35 -2 -52 -11 -17 -9
-35 -15 -40 -14 -4 2 -19 -4 -32 -13 -13 -8 -30 -15 -38 -15 -8 0 -40 -13 -71
-30 -33 -18 -72 -30 -94 -30 -20 0 -69 -14 -109 -31 -78 -32 -109 -31 -114 4
-2 16 6 29 30 45 18 13 37 20 43 16 19 -11 98 17 114 42 8 13 22 24 29 24 7 0
24 9 38 19 13 11 38 23 54 26 16 4 79 31 139 61 61 30 126 56 144 58 18 2 36
8 40 14 14 22 64 41 83 31 15 -8 18 -6 18 14 0 19 12 29 63 53 l62 29 3 -23
c2 -13 -2 -29 -8 -37z m-47 -172 c-3 -21 -9 -43 -15 -50 -20 -24 -108 -75
-140 -80 -18 -2 -46 -11 -63 -18 -16 -7 -58 -21 -93 -30 -57 -17 -64 -17 -79
-3 -20 21 -11 35 30 43 17 4 46 15 62 26 17 10 39 16 50 15 11 -2 40 7 65 20
44 23 78 32 133 33 24 1 26 4 18 19 -7 13 -4 23 11 40 12 12 22 22 24 22 1 0
0 -17 -3 -37z m45 -125 c-16 -10 -20 -10 -37 1 -24 15 -3 32 25 19 18 -8 21
-14 12 -20z m102 -43 c5 3 10 2 10 -4 0 -5 8 -11 18 -14 9 -2 -9 -7 -40 -11
-59 -8 -78 -4 -78 19 0 16 49 25 67 12 7 -5 17 -6 23 -2z"/>
</g>
</svg>
